Coordinates
version=1
nRows=17
nColumns=40
inDegrees=yes

Units are S.I. units (second, meters, Newtons, ...)
Angles are in degrees.

endheader
time	pelvis_tilt	pelvis_list	pelvis_rotation	pelvis_tx	pelvis_ty	pelvis_tz	hip_flexion_r	hip_adduction_r	hip_rotation_r	knee_angle_r	knee_angle_r_beta	ankle_angle_r	subtalar_angle_r	mtp_angle_r	hip_flexion_l	hip_adduction_l	hip_rotation_l	knee_angle_l	knee_angle_l_beta	ankle_angle_l	subtalar_angle_l	mtp_angle_l	lumbar_extension	lumbar_bending	lumbar_rotation	arm_flex_r	arm_add_r	arm_rot_r	elbow_flex_r	pro_sup_r	wrist_flex_r	wrist_dev_r	arm_flex_l	arm_add_l	arm_rot_l	elbow_flex_l	pro_sup_l	wrist_flex_l	wrist_dev_l
     33.42000000	     -4.04538669	     -7.16012627	      2.57454532	      1.02249100	      0.92753612	      0.52476745	     14.39309344	      4.73180578	    -15.38012344	     16.91702999	     16.91702999	      8.31157618	     -3.43670746	     -4.05171986	     32.40721817	    -14.12554278	      5.36380651	     68.23452793	     68.23452793	      6.12583513	    -18.93239334	     14.27884442	    -13.16626280	      7.04739426	      3.14410082	      6.20233460	    -17.92711246	     -0.23297717	     51.21211640	     45.51994925	      0.00000000	      0.00000000	      6.12526782	     -8.45766390	     -6.33821242	     38.60288694	     45.76627362	      0.00000000	      0.00000000
     33.43207143	     -4.14198735	     -7.07797067	      2.93305160	      1.02118701	      0.92783622	      0.52533121	     13.76505200	      4.76055859	    -15.42007394	     16.54482565	     16.54482565	      8.63849280	     -3.58116824	     -4.14737769	     34.28599092	    -14.08049158	      4.97937622	     66.39494971	     66.39494971	      6.86939340	    -19.16390188	     14.93546665	    -13.13820422	      6.77573687	      2.60694345	      8.91869783	    -17.91098143	     -0.39425266	     53.57451835	     45.45637633	      0.00000000	      0.00000000	      4.60226838	     -8.55108056	     -6.14779041	     36.51498671	     45.73643162	      0.00000000	      0.00000000
     33.44414286	     -4.19488069	     -6.98147381	      3.27770354	      1.01996419	      0.92820188	      0.52585473	     13.04023395	      4.79293693	    -15.44148039	     16.07543405	     16.07543405	      8.94127771	     -3.67169877	     -4.23766523	     35.83616685	    -13.96641910	      4.51091060	     64.18545813	     64.18545813	      7.61672906	    -19.27903568	     15.90088008	    -13.16171611	      6.50464769	      2.25052344	     11.46748271	    -18.02606619	     -0.33411902	     56.21913591	     45.37384957	      0.00000000	      0.00000000	      3.29910153	     -8.55565257	     -5.97941302	     34.17294425	     45.71379437	      0.00000000	      0.00000000
     33.45621429	     -4.24292085	     -6.88652594	      3.60267924	      1.01875152	      0.92849393	      0.52618300	     12.31544165	      4.81431084	    -15.49858627	     15.60415931	     15.60415931	      9.21178606	     -3.72181341	     -4.36892713	     37.14534327	    -13.69682257	      4.12614441	     61.70086772	     61.70086772	      8.34760231	    -19.33615499	     17.15294043	    -13.20065414	      6.28861414	      2.02717735	     13.85819483	    -18.32311422	     -0.08694457	     59.15135604	     45.27523030	      0.00000000	      0.00000000	      2.28817207	     -8.45820011	     -5.80696540	     31.48153819	     45.70108686	      0.00000000	      0.00000000
     33.46828571	     -4.29200657	     -6.75408503	      3.88395237	      1.01759977	      0.92876344	      0.52636636	     11.59482966	      4.78531937	    -15.54160319	     15.13779675	     15.13779675	      9.49301913	     -3.67566084	     -4.48797616	     38.17818451	    -13.26052966	      3.79781921	     58.91430331	     58.91430331	      8.87494300	    -19.34017319	     18.06690637	    -13.24045427	      6.01587669	      2.01166466	     16.16183741	    -18.60265227	      0.01914452	     61.79257293	     45.19358255	      0.00000000	      0.00000000	      1.30933216	     -8.35043417	     -5.66391514	     29.22477023	     45.68929254	      0.00000000	      0.00000000
     33.48035714	     -4.42362499	     -6.68191617	      4.16384014	      1.01643387	      0.92880346	      0.52624781	     10.97562388	      4.76636999	    -15.76840623	     14.68692349	     14.68692349	      9.68573705	     -3.45691502	     -4.87179013	     39.15726469	    -12.67597265	      3.72097586	     55.97912189	     55.97912189	      9.35127305	    -19.29870024	     19.21452046	    -13.20847149	      5.89690222	      2.69691095	     17.55418543	    -19.85225117	      0.62373714	     65.88218188	     45.05285053	      0.00000000	      0.00000000	      1.43585429	     -7.95922617	     -5.44628263	     25.28324527	     45.74124034	      0.00000000	      0.00000000
     33.49242857	     -4.49848917	     -6.51849446	      4.39107565	      1.01543403	      0.92896595	      0.52594478	     10.26454548	      4.67285602	    -15.80110567	     14.20479075	     14.20479075	      9.97525043	     -3.33062904	     -4.89553663	     39.76716072	    -11.89364154	      3.75495400	     52.74150776	     52.74150776	      9.39720306	    -19.19952402	     19.29274912	    -13.21664869	      5.65027671	      2.69539124	     20.05056440	    -19.85952111	      0.10862930	     67.83023102	     45.02060109	      0.00000000	      0.00000000	      0.17718840	     -7.89444961	     -5.39729992	     24.31221291	     45.72470435	      0.00000000	      0.00000000
     33.50450000	     -4.59077379	     -6.45175644	      4.62070759	      1.01449220	      0.92897946	      0.52535828	      9.54236525	      4.64841132	    -16.02842618	     13.65935067	     13.65935067	     10.22853376	     -2.93565223	     -4.96845940	     40.24208094	    -11.05795423	      4.10862947	     49.34861739	     49.34861739	      9.29375903	    -19.00492507	     18.97758943	    -13.19524593	      5.56773287	      2.56690046	     22.48524085	    -19.79886484	     -0.24893148	     70.30185470	     44.96607211	      0.00000000	      0.00000000	     -1.11437381	     -7.78233034	     -5.30462282	     23.30002516	     45.70118006	      0.00000000	      0.00000000
     33.51657143	     -4.70856782	     -6.41395095	      4.80038138	      1.01377029	      0.92881876	      0.52459396	      8.82564217	      4.60589616	    -16.47622132	     13.13080225	     13.13080225	     10.58716995	     -2.02018301	     -5.25207366	     40.50106219	    -10.25366524	      4.54127084	     45.70667352	     45.70667352	      8.48277824	    -18.61192686	     16.68026715	    -13.12693488	      5.51586757	      2.98911669	     24.20273368	    -20.46236536	     -0.48121230	     73.92190094	     44.88241730	      0.00000000	      0.00000000	     -2.07306585	     -7.58469322	     -5.01051586	     22.53521686	     45.66889059	      0.00000000	      0.00000000
     33.52864286	     -4.78764666	     -6.39108959	      4.96248570	      1.01311435	      0.92868702	      0.52366303	      8.02083365	      4.62912665	    -16.72688979	     12.48350653	     12.48350653	     10.77847702	     -1.53830447	     -5.26858886	     40.63480526	     -9.43030965	      5.20395362	     42.13529980	     42.13529980	      8.30052921	    -17.81925774	     16.06107563	    -13.08256935	      5.54043536	      3.03247877	     26.65355218	    -20.26239191	     -0.88002022	     76.26641970	     44.83736369	      0.00000000	      0.00000000	     -3.43448090	     -7.44193215	     -4.84038459	     21.99526930	     45.62071962	      0.00000000	      0.00000000
     33.54071429	     -5.04983900	     -6.50123934	      5.02937782	      1.01253301	      0.92802717	      0.52267332	      7.58942201	      4.74028444	    -16.82037715	     12.17340495	     12.17340495	     11.05321562	     -1.30303586	     -5.37394718	     40.91261358	     -8.84805736	      5.82336433	     38.68430729	     38.68430729	      8.56370460	    -16.33094340	     16.04036012	    -12.70451190	      5.70889267	      3.67163161	     28.92380617	    -20.68208795	     -1.26669521	     77.52145852	     44.82101149	      0.00000000	      0.00000000	     -4.50053176	     -7.23641436	     -4.80477942	     21.68228807	     45.59366936	      0.00000000	      0.00000000
     33.55278571	     -4.88876569	     -6.52274461	      5.10634775	      1.01273609	      0.92798043	      0.52159526	      6.21618781	      4.85085417	    -17.43191125	     11.07383920	     11.07383920	     11.31068601	      0.30977389	     -5.40432441	     40.26810537	     -8.44542865	      6.02971720	     34.69144593	     34.69144593	      6.95203634	    -14.85671872	     11.00266878	    -12.92438305	      5.78723673	      3.84203409	     30.73564053	    -20.60469063	     -1.53266450	     81.84116279	     44.89633337	      0.00000000	      0.00000000	     -6.73675260	     -7.74762835	      0.37694914	     23.50460168	     44.84079056	      0.00000000	      0.00000000
     33.56485714	     -4.91546497	     -6.60706185	      5.10569367	      1.01289500	      0.92745807	      0.52052878	      5.30728732	      4.99339261	    -17.62400623	     10.44858356	     10.44858356	     11.58769629	      1.00837292	     -5.48909944	     39.97749721	     -8.15616705	      6.16901466	     31.34056944	     31.34056944	      7.31305620	    -12.71475427	     11.17978872	    -12.78773929	      5.91373649	      4.03352584	     33.07867408	    -20.27954514	     -1.77322596	     83.69185375	     44.85919611	      0.00000000	      0.00000000	     -8.05279724	     -7.57762749	      0.43848487	     23.27243116	     44.81661320	      0.00000000	      0.00000000
     33.57692857	     -5.10988184	     -6.90028261	      5.07232140	      1.01309865	      0.92635717	      0.51939911	      4.71368636	      5.31496598	    -17.72488868	     10.05253081	     10.05253081	     11.88243012	      1.45197278	     -5.60392010	     39.89167654	     -8.06910004	      6.36550991	     28.30025696	     28.30025696	      7.45282472	    -10.99105846	     11.52134052	    -12.36593521	      6.30267522	      4.60374900	     35.39508411	    -20.40191490	     -2.07647026	     85.00048427	     44.83877494	      0.00000000	      0.00000000	     -9.20001404	     -7.30687208	      0.47298674	     23.12614870	     44.79119031	      0.00000000	      0.00000000
     33.58900000	     -4.87525674	     -6.99640682	      5.01930210	      1.01412155	      0.92591018	      0.51821750	      3.20352446	      5.54839951	    -18.10879521	      8.93702510	      8.93702510	     12.12866356	      2.89299740	     -5.59125316	     39.14778271	     -8.05718809	      5.81966369	     25.50878761	     25.50878761	      7.77695589	     -8.93397661	     11.83618780	    -12.49414160	      6.46488915	      4.44712580	     37.57693068	    -19.49695580	     -1.99770020	     87.54193013	     44.77065077	      0.00000000	      0.00000000	    -10.91489335	     -7.15936444	      0.57996802	     23.52466316	     44.74143873	      0.00000000	      0.00000000
     33.60107143	     -4.96386824	     -7.25342606	      4.87940796	      1.01498307	      0.92462712	      0.51707530	      2.42194950	      5.84377685	    -18.19545888	      8.50655731	      8.50655731	     12.46557264	      3.49901019	     -5.67213341	     38.78923935	     -8.13964946	      5.42881110	     23.16467648	     23.16467648	      7.82440314	     -7.79300341	     12.29750679	    -12.11654429	      6.76332655	      4.95108681	     39.72702411	    -19.31323812	     -2.13226876	     88.87388682	     44.74468180	      0.00000000	      0.00000000	    -12.07983244	     -6.91193335	      0.64901604	     23.66018018	     44.70706229	      0.00000000	      0.00000000
     33.61314286	     -4.77739018	     -7.40450321	      4.72851822	      1.01637550	      0.92365943	      0.51582108	      1.12859522	      6.06745439	    -18.37832685	      7.76044285	      7.76044285	     12.84561480	      4.68261331	     -5.61588480	     38.06779557	     -8.24580971	      4.54608674	     21.27165959	     21.27165959	      7.83506322	     -6.87054956	     12.82896223	    -12.09534985	      6.96214604	      4.92625276	     41.66203852	    -18.44030740	     -1.96602212	     90.76125333	     44.69439591	      0.00000000	      0.00000000	    -13.80335106	     -6.78848528	      0.80255194	     24.24285343	     44.64585875	      0.00000000	      0.00000000
